<svg xmlns="http://www.w3.org/2000/svg" width="238" height="42" viewBox="0 0 238 42">
  <path fill="#eb280f" d="M237.882353,1.31201539 L237.849998,1.46141077 C237.749872,1.92374313 237.416246,3.06524355 237.137328,3.89984579 C236.148158,6.85968129 234.823127,9.40650143 233.032049,11.7905094 C229.169584,16.9316344 223.374752,20.7815351 215.424534,23.4883512 C214.677609,23.7426584 214.470814,23.8315135 214.625907,23.8315135 C214.754743,23.8315135 215.54496,24.243895 215.969565,24.5327136 C216.449061,24.8588577 216.416201,24.8267638 226.514926,34.8362152 L233.101447,41.3645006 L225.779597,41.3770166 C217.745874,41.3907427 218.074642,41.4004951 216.949346,41.1152366 C215.885601,40.8455794 214.790252,40.3568159 213.838614,39.7271618 C213.114132,39.2478028 212.941163,39.0813411 206.19172,32.3677361 L200.889404,27.0935698 L199.631748,27.3431113 C195.175336,28.2273498 191.100897,29.3450918 187.183326,30.7580913 C186.232609,31.1009995 184.498183,31.7769961 183.859045,32.0537431 C183.736889,32.1066377 183.620124,32.1499164 183.599566,32.1499164 C183.551846,32.1499164 183.741608,31.2698937 183.925715,30.6372431 C184.406345,28.9858243 185.322579,27.4318439 186.40564,26.4312244 C188.071879,24.8918067 190.135318,23.8838643 195.157044,22.1563466 C197.616641,21.3102241 199.061485,20.8065501 199.927058,20.4935269 C208.305621,17.4634638 214.05212,13.8375723 216.560648,9.99814628 C217.095292,9.17984876 217.545022,8.15268929 217.632343,7.55046451 L217.664054,7.33174747 L202.802851,7.34365366 L187.941634,7.35555985 L187.530845,7.48425197 C186.37082,7.84766187 185.563398,8.51042345 185.112091,9.4696291 C185.016957,9.67184447 182.143738,16.2587783 178.727172,24.1072618 C175.310593,31.9557437 172.452218,38.4877871 172.375206,38.6229144 C171.753257,39.7142092 170.542293,40.6573646 169.213739,41.0852123 C168.419579,41.340962 168.510135,41.380782 164.566204,41.3868307 L159.374791,41.3868307 C156.427679,41.3841906 154.231422,41.374758 154.231422,41.3636842 C154.231422,41.3506015 158.149512,32.3388023 162.938277,21.3374742 L171.645133,1.33505787 L204.763744,1.32353663 L237.882353,1.31201539 Z M166.088592,1.30398675 C166.088592,1.35409224 164.943365,3.97713316 164.79083,4.27637179 C164.190787,5.45360226 162.732798,6.56992083 161.308069,6.94297939 C160.409483,7.17826611 160.983069,7.16395651 151.313088,7.19232096 L142.305314,7.21874226 L141.93765,7.32340701 C140.851129,7.63271188 139.978229,8.30125041 139.531233,9.16643652 C139.432018,9.3584693 136.534121,15.9784343 133.091456,23.8774716 C129.648795,31.7765073 126.759915,38.3723314 126.671726,38.5348573 C125.900486,39.9562104 124.293453,41.028713 122.498774,41.3198005 C122.191645,41.3696153 121.300281,41.3840465 117.223118,41.3868759 L108.462471,41.3874476 L108.609215,41.056078 L108.636115,40.9946673 C108.969786,40.2305226 112.201443,32.8017175 116.041566,23.9712123 L123.327181,7.21768552 L111.75598,7.20610648 L110.677072,7.20490933 C104.813735,7.19775872 100.184783,7.18149995 100.184783,7.16746771 C100.184783,7.12641751 101.366396,4.41445181 101.493985,4.16266543 C101.664185,3.82679192 102.119161,3.24693783 102.478433,2.9080203 C103.259577,2.17112751 104.146709,1.69825132 105.286124,1.41141051 L105.768683,1.28992898 L135.928638,1.27774872 L141.169711,1.27587158 C155.282406,1.27370085 166.088592,1.28513219 166.088592,1.30398675 Z M95.5889801,1.10382759 C97.3485888,1.29231708 97.4756857,1.3126053 97.4338686,1.39832577 C97.4138539,1.43935919 93.4902838,10.4535204 88.7148313,21.4297945 L80.0321881,41.3866769 L69.4601646,41.3866769 C64.3990845,41.3842066 63.0474864,41.3708266 63.0636392,41.3300811 C63.0761703,41.298436 64.1661907,38.7598296 65.4859121,35.6886844 C66.8056382,32.6175394 67.8959097,30.0789328 67.9087457,30.0473366 C67.9241128,30.0095097 66.5906753,29.994997 61.7547862,29.991076 L56.7046808,29.9894901 C52.0387168,29.9869499 48.4360448,29.9725977 48.4360448,29.9554145 C48.4360448,29.8858571 49.3045321,28.9442905 49.725719,28.5572152 C51.7837286,26.6658937 54.0829445,25.4383042 56.6381049,24.8665742 C58.1000022,24.5394664 57.8422558,24.552327 63.5562356,24.5214048 C68.3420334,24.495506 68.7487297,24.4872733 69.0252408,24.4107057 C69.4457521,24.2942649 70.0132143,24.0105186 70.3214088,23.7625857 C70.8821565,23.3114787 70.8291485,23.4189163 73.501479,17.3175225 C74.858013,14.2203337 75.9577334,11.6761033 75.9453062,11.6636773 C75.9055205,11.62389 73.7670154,11.7438969 72.8397571,11.8379523 C65.4883846,12.58363 57.9113905,15.3424487 51.0449948,19.7735302 C48.5683765,21.3717589 46.2101,23.1592488 43.936682,25.1613703 C43.5473778,25.5042172 43.0200095,25.9685067 42.7647524,26.1931234 C34.656485,33.3280856 26.1154263,38.0960853 17.8509782,40.1011053 C14.8355214,40.832679 12.1958347,41.1769521 9.16491131,41.2339615 C6.63781957,41.2814928 4.29425039,41.0920723 1.90354297,40.6470576 C0.998949659,40.4786736 0.823529412,40.4331813 0.823529412,40.3669741 C0.823529412,40.3384586 1.09635859,39.5873007 1.42981629,38.6977326 L2.03610335,37.0803364 L3.73920706,37.0528871 C6.04857595,37.0156658 7.54030233,36.8666439 9.39470136,36.4879129 C12.1099168,35.9333741 14.583675,35.0438198 17.506293,33.5710122 C22.7977408,30.9044722 28.5361995,26.7094098 36.4162193,19.7470354 C40.6747039,15.9844624 44.1797694,13.3830583 48.4288065,10.8314896 C57.4893304,5.39059567 67.6907209,2.03647645 78.3547202,0.992135688 C81.2132489,0.712195659 82.3972886,0.652150482 85.7436548,0.647095476 L86.3973747,0.647095476 C90.4135042,0.648830747 92.1441916,0.734821465 95.5889801,1.10382759 Z"/>
</svg>
